<svg width="512" height="512" viewBox="0 0 512 512" fill="none" xmlns="http://www.w3.org/2000/svg">
<path fill-rule="evenodd" clip-rule="evenodd" d="M172.467 199.405C193.187 144.917 245.637 106.183 306.999 106.183C386.473 106.183 450.997 171.157 450.997 251.185C450.997 331.212 386.473 396.183 306.999 396.183C278.173 396.183 251.314 387.637 228.779 372.918C211.016 387.43 188.057 396.183 163 396.183C106.704 396.183 61 352.002 61 297.584C61 243.165 106.704 198.983 163 198.983C166.192 198.983 169.35 199.126 172.467 199.405Z" stroke="#1BD70A" stroke-width="18.3046" stroke-miterlimit="1.5" stroke-linecap="round" stroke-linejoin="round"/>
<path fill-rule="evenodd" clip-rule="evenodd" d="M353.53 245.616C374.389 243.188 390.578 225.459 390.578 203.95C390.578 180.781 371.796 162 348.628 162C325.851 162 307.314 180.152 306.695 202.779L264.826 215.421C258.674 208.39 249.635 203.95 239.56 203.95C221.025 203.95 206 218.975 206 237.509C206 256.044 221.025 271.069 239.56 271.069C256.754 271.069 270.929 258.137 272.888 241.469L314.832 228.806C317.993 233.096 321.95 236.762 326.487 239.586L307.958 283.664C289.802 284.098 275.217 298.953 275.217 317.214C275.217 335.748 290.242 350.773 308.777 350.773C327.311 350.773 342.336 335.748 342.336 317.214C342.336 308.271 338.839 300.146 333.137 294.13L353.53 245.616Z" fill="black"/>
</svg>
