<?xml version="1.0" encoding="UTF-8"?>
<svg width="314px" height="79px" viewBox="0 0 314 79" version="1.1" xmlns="http://www.w3.org/2000/svg" xmlns:xlink="http://www.w3.org/1999/xlink">
    <title>2E27A817-E930-4168-A1F3-376A8B9438E4</title>
    <defs>
        <polygon id="path-1" points="0 0.780773356 42.3978578 0.780773356 42.3978578 51.6812092 0 51.6812092"></polygon>
        <polygon id="path-3" points="1.00787034 0.506729687 1.5081488 0.506729687 1.5081488 1.49143565 1.00787034 1.49143565"></polygon>
    </defs>
    <g id="s5-Remote" stroke="none" strokeWidth="1" fill="none" fill-rule="evenodd">
        <g id="Entry-Point" transform="translate(-157.000000, -418.000000)">
            <g id="logo-/-black-n-green" transform="translate(157.000000, 418.000000)">
                <g id="Group-8">
                    <polygon id="Fill-1" fill="#E0E6F3" points="48.5809714 65.0073334 58.9561654 65.0073334 58.9561654 16.439666 48.5809714 16.439666"></polygon>
                    <polygon id="Fill-2" fill="#E0E6F3" points="183.712487 65.0083181 194.087681 65.0083181 194.087681 -5.8306301e-14 183.712487 -5.8306301e-14"></polygon>
                    <path d="M155.387259,55.1015853 C147.218943,55.1015853 140.592379,48.4922389 140.592379,40.3349347 C140.592379,32.1766459 147.218943,25.5672994 155.387259,25.5672994 C163.560516,25.5672994 170.187081,32.1766459 170.187081,40.3349347 C170.187081,48.4922389 163.560516,55.1015853 155.387259,55.1015853 M155.387259,16.4390752 C149.800388,16.4390752 144.662206,18.3503895 140.592379,21.5477297 L140.592379,16.4390752 L131.44762,16.4390752 L131.44762,77.7783789 L140.592379,77.7783789 L140.592379,59.1211551 C144.662206,62.3184953 149.800388,64.2307943 155.387259,64.2307943 C168.611728,64.2307943 179.326897,53.5290099 179.326897,40.3349347 C179.326897,27.1398749 168.611728,16.4390752 155.387259,16.4390752" id="Fill-3" fill="#E0E6F3"></path>
                    <polygon id="Fill-5" fill="#E0E6F3" points="128.034223 65.0073334 117.659029 65.0073334 112.339988 35.0220522 101.19293 65.0073334 90.7791922 65.0073334 79.7457891 35.327311 74.4801162 65.0073334 64.1049222 65.0073334 72.7209387 16.439666 83.0911912 16.439666 95.9875436 51.1121476 108.878954 16.439666 119.418207 16.439666"></polygon>
                    <g id="Group-9" transform="translate(0.000000, 14.417080)">
                        <mask id="mask-2" fill="white">
                            <use xlink:href="#path-1"></use>
                        </mask>
                        <g id="Clip-8"></g>
                        <path d="M26.9803472,21.7510715 L18.8308092,20.2740126 C15.5269157,19.683189 13.4346804,17.8122477 13.4346804,15.2529969 C13.4346804,12.298879 16.6278841,9.73962819 21.1434358,9.73962819 C28.3017069,9.73962819 30.6143335,14.1698203 31.0541279,16.926997 L41.8888823,16.8895782 C41.8888823,16.8895782 41.9481804,14.6592192 41.8463853,14.1698203 C40.96482,9.4442164 36.1201637,0.780773356 21.1434358,0.780773356 C10.0210854,0.780773356 1.43076476,7.86868686 1.43076476,16.2367181 C1.43076476,22.834248 6.38709911,28.346632 15.8570085,30.218558 L23.7871435,31.7931029 C28.0803273,32.5808676 30.0638493,34.5492949 30.0638493,37.1095304 C30.0638493,40.0636482 27.31044,42.622899 22.0240128,42.622899 C15.1968228,42.622899 11.5628365,38.7835305 11.1220538,34.4508243 L-0.00029649059,34.4508243 L-0.00029649059,37.208001 C0.660877524,42.622899 6.60749045,51.6812092 22.1347026,51.6812092 C35.7900709,51.6812092 42.3978578,43.607605 42.3978578,36.3217656 C42.3978578,29.2338521 37.1114306,23.7204834 26.9803472,21.7510715" id="Fill-7" fill="#E0E6F3" mask="url(#mask-2)"></path>
                    </g>
                    <polygon id="Fill-10" fill="#38B449" points="241.961127 16.8221258 230.492871 16.8221258 225.138304 41.313254 209.05166 16.4971728 196.232396 16.6015517 221.555311 57.4590762 218.31798 77.7783789 229.787224 77.7783789 234.31167 55.1350653 234.31167 55.1301418"></polygon>
                    <g id="Group-14" transform="translate(311.315119, 40.019435)">
                        <mask id="mask-4" fill="white">
                            <use xlink:href="#path-3"></use>
                        </mask>
                        <g id="Clip-13"></g>
                        <line x1="1.50745699" y1="0.999082668" x2="1.49658567" y2="0.999082668" id="Fill-12" fill="#38B449" mask="url(#mask-4)"></line>
                    </g>
                    <path d="M290.324277,54.4919539 C290.324277,67.9016796 279.702008,78.7757876 266.604042,78.7757876 C253.908315,78.7757876 243.542015,68.5673409 242.915432,55.730714 L251.991997,55.730714 C252.603756,63.4439157 258.913076,69.4998574 266.604042,69.4998574 C274.697246,69.4998574 281.263525,62.783178 281.263525,54.4919539 C281.263525,46.2017144 274.697246,39.485035 266.604042,39.485035 C260.512148,39.485035 255.288972,43.2869847 253.073199,48.697944 L243.561781,48.697944 L247.152282,25.7149069 L248.604098,16.4389767 L285.461831,16.4389767 L285.461831,25.7149069 L256.69335,25.7149069 L255.544943,33.0007463 C258.84686,31.2184285 262.609325,30.2081202 266.604042,30.2081202 C279.702008,30.2081202 290.324277,41.0822281 290.324277,54.4919539" id="Fill-15" fill="#38B449"></path>
                </g>
            </g>
        </g>
    </g>
</svg>