<?xml version="1.0" encoding="UTF-8"?>
<svg width="314px" height="79px" viewBox="0 0 270 69" version="1.1" xmlns="http://www.w3.org/2000/svg" xmlns:xlink="http://www.w3.org/1999/xlink">
    <title>2E27A817-E930-4168-A1F3-376A8B9438E4</title>
    <defs>
        <polygon id="path-1" points="0 0.780773356 42.3978578 0.780773356 42.3978578 51.6812092 0 51.6812092"></polygon>
        <polygon id="path-3" points="1.00787034 0.506729687 1.5081488 0.506729687 1.5081488 1.49143565 1.00787034 1.49143565"></polygon>
    </defs>
                    <g
                        id="Remote-Final"
                        stroke="none"
                        strokeWidth="1"
                        fill="none"
                        fillRule="evenodd">
                        <g
                            id="Signup"
                            transform="translate(-151.000000, -300.000000)">
                            <g
                                id="logo-/-black-n-green-copy"
                                transform="translate(151.000000, 300.000000)">
                                <g id="logo-/-black-n-green">
                                    <g id="Group-8">
                                        <polygon
                                            id="Fill-1"
                                            fill="#404042"
                                            points="41.4023399 55.9202868 50.2444297 55.9202868 50.2444297 14.1416482 41.4023399 14.1416482"></polygon>
                                        <polygon
                                            id="Fill-2"
                                            fill="#404042"
                                            points="156.565969 55.9211339 165.408058 55.9211339 165.408058 -5.01559578e-14 156.565969 -5.01559578e-14"></polygon>
                                        <path
                                            d="M132.426255,47.3992132 C125.464941,47.3992132 119.81756,41.7137539 119.81756,34.6967181 C119.81756,27.6788351 125.464941,21.9933759 132.426255,21.9933759 C139.39178,21.9933759 145.039162,27.6788351 145.039162,34.6967181 C145.039162,41.7137539 139.39178,47.3992132 132.426255,47.3992132 M132.426255,14.1411399 C127.664935,14.1411399 123.286004,15.7852813 119.81756,18.5356815 L119.81756,14.1411399 L112.024089,14.1411399 L112.024089,66.9061324 L119.81756,66.9061324 L119.81756,50.8569076 C123.286004,53.6073078 127.664935,55.2522962 132.426255,55.2522962 C143.696593,55.2522962 152.828421,46.0464601 152.828421,34.6967181 C152.828421,23.3461289 143.696593,14.1411399 132.426255,14.1411399"
                                            id="Fill-3"
                                            fill="#404042"></path>
                                        <polygon
                                            id="Fill-5"
                                            fill="#404042"
                                            points="109.115077 55.9202868 100.272987 55.9202868 95.739921 30.1264965 86.2400229 55.9202868 77.3650848 55.9202868 67.9620471 30.3890848 63.4744633 55.9202868 54.6323735 55.9202868 61.975233 14.1416482 70.8131114 14.1416482 81.8038172 43.9674388 92.7903117 14.1416482 101.772217 14.1416482"></polygon>
                                        <g
                                            id="Group-9"
                                            transform="translate(0.000000, 12.401789)">
                                            <mask id="mask-2" fill="white">
                                                <polygon
                                                    id="path-1"
                                                    points="0 0.671632995 36.1328823 0.671632995 36.1328823 44.4569541 0 44.4569541"></polygon>
                                            </mask>
                                            <g id="Clip-8"></g>
                                            <path
                                                d="M22.9935605,18.7105991 L16.0482497,17.4400108 C13.2325604,16.9317755 11.4494871,15.3223636 11.4494871,13.1208575 C11.4494871,10.5796808 14.1708428,8.37817478 18.019148,8.37817478 C24.1196677,8.37817478 26.090566,12.1890927 26.4653736,14.5608576 L35.6991162,14.5286694 C35.6991162,14.5286694 35.749652,12.610081 35.6628988,12.1890927 C34.9115992,8.12405712 30.78282,0.671632995 18.019148,0.671632995 C8.54030649,0.671632995 1.21934591,6.76876289 1.21934591,13.9670693 C1.21934591,19.6423639 5.44330096,24.3841996 13.5138767,25.9944585 L20.2722048,27.3489057 C23.9310005,28.0265528 25.6214248,29.7198235 25.6214248,31.9221767 C25.6214248,34.4633533 23.2748767,36.6648594 18.7696054,36.6648594 C12.9512442,36.6648594 9.85423867,33.3621768 9.47858883,29.6351176 L-0.000252679265,29.6351176 L-0.000252679265,32.0068825 C0.563222082,36.6648594 5.63112588,44.4569541 18.863939,44.4569541 C30.5015037,44.4569541 36.1328823,37.5119183 36.1328823,31.2445295 C36.1328823,25.1473996 31.627611,20.4047169 22.9935605,18.7105991"
                                                id="Fill-7"
                                                fill="#404042"
                                                mask="url(#mask-2)"></path>
                                        </g>
                                        <polygon
                                            id="Fill-10"
                                            fill="#38B449"
                                            points="206.207421 14.4706459 196.433787 14.4706459 191.870445 35.538283 178.160865 14.1911164 167.235856 14.2809047 188.816897 49.4271623 186.057934 66.9061324 195.832411 66.9061324 199.688296 47.4280132 199.688296 47.4237779"></polygon>
                                        <g
                                            id="Group-14"
                                            transform="translate(265.313229, 34.425320)">
                                            <mask id="mask-4" fill="white">
                                                <polygon
                                                    id="path-3"
                                                    points="0.858941049 0.435896505 1.2852952 0.435896505 1.2852952 1.2829554 0.858941049 1.2829554"></polygon>
                                            </mask>
                                            <g id="Clip-13"></g>
                                            <line
                                                x1="1.28470561"
                                                y1="0.859425951"
                                                x2="1.27544071"
                                                y2="0.859425951"
                                                id="Fill-12"
                                                fill="#38B449"
                                                mask="url(#mask-4)"></line>
                                        </g>
                                        <path
                                            d="M247.424126,46.874799 C247.424126,58.410047 238.37147,67.7641183 227.208943,67.7641183 C216.389217,67.7641183 207.554707,58.9826588 207.020712,47.9403991 L214.756066,47.9403991 C215.277428,54.5754114 220.654443,59.7848236 227.208943,59.7848236 C234.106244,59.7848236 239.702248,54.0070349 239.702248,46.874799 C239.702248,39.7434102 234.106244,33.9656215 227.208943,33.9656215 C222.017226,33.9656215 217.56586,37.2361159 215.677503,41.8907045 L207.571552,41.8907045 L210.631498,22.12035 L211.868785,14.1410552 L243.280186,14.1410552 L243.280186,22.12035 L218.762717,22.12035 L217.784006,28.3877387 C220.598011,26.8545621 223.804511,25.9854797 227.208943,25.9854797 C238.37147,25.9854797 247.424126,35.339551 247.424126,46.874799"
                                            id="Fill-15"
                                            fill="#38B449"></path>
                                    </g>
                                </g>
                            </g>
                        </g>
                    </g>
</svg>